<?xml version="1.0" encoding="UTF-8" standalone="no"?>
<!DOCTYPE svg PUBLIC "-//W3C//DTD SVG 1.1//EN"
 "http://www.w3.org/Graphics/SVG/1.1/DTD/svg11.dtd">
<!-- Generated by graphviz version 13.1.0 (20250701.0955)
 -->
<!-- Title: asynciojobs Pages: 1 -->
<svg width="3001pt" height="220pt"
 viewBox="0.00 0.00 3001.00 220.00" xmlns="http://www.w3.org/2000/svg" xmlns:xlink="http://www.w3.org/1999/xlink">
<g id="graph0" class="graph" transform="scale(1 1) rotate(0) translate(4 215.5)">
<title>asynciojobs</title>
<polygon fill="white" stroke="none" points="-4,4 -4,-215.5 2996.75,-215.5 2996.75,4 -4,4"/>
<!-- 1 -->
<g id="node1" class="node">
<title>1</title>
<path fill="none" stroke="red" stroke-width="2" d="M1557.25,-211.5C1557.25,-211.5 1435.5,-211.5 1435.5,-211.5 1429.5,-211.5 1423.5,-205.5 1423.5,-199.5 1423.5,-199.5 1423.5,-182.5 1423.5,-182.5 1423.5,-176.5 1429.5,-170.5 1435.5,-170.5 1435.5,-170.5 1557.25,-170.5 1557.25,-170.5 1563.25,-170.5 1569.25,-176.5 1569.25,-182.5 1569.25,-182.5 1569.25,-199.5 1569.25,-199.5 1569.25,-205.5 1563.25,-211.5 1557.25,-211.5"/>
<text xml:space="preserve" text-anchor="middle" x="1496.38" y="-194.2" font-family="Times,serif" font-size="14.00">1: root@faraday.inria.fr</text>
<text xml:space="preserve" text-anchor="middle" x="1496.38" y="-177.7" font-family="Times,serif" font-size="14.00">rhubarbe leases &#45;&#45;check</text>
</g>
<!-- 2 -->
<g id="node2" class="node">
<title>2</title>
<path fill="none" stroke="black" stroke-width="0.5" d="M1568.13,-134.5C1568.13,-134.5 1424.63,-134.5 1424.63,-134.5 1418.63,-134.5 1412.63,-128.5 1412.63,-122.5 1412.63,-122.5 1412.63,-105.5 1412.63,-105.5 1412.63,-99.5 1418.63,-93.5 1424.63,-93.5 1424.63,-93.5 1568.13,-93.5 1568.13,-93.5 1574.13,-93.5 1580.13,-99.5 1580.13,-105.5 1580.13,-105.5 1580.13,-122.5 1580.13,-122.5 1580.13,-128.5 1574.13,-134.5 1568.13,-134.5"/>
<text xml:space="preserve" text-anchor="middle" x="1496.38" y="-117.2" font-family="Times,serif" font-size="14.00">2: root@fit01</text>
<text xml:space="preserve" text-anchor="middle" x="1496.38" y="-100.7" font-family="Times,serif" font-size="14.00">RunScript: demo&#45;oai.sh init</text>
</g>
<!-- 1&#45;&gt;2 -->
<g id="edge1" class="edge">
<title>1&#45;&gt;2</title>
<path fill="none" stroke="black" d="M1496.38,-169.51C1496.38,-162.31 1496.38,-154.04 1496.38,-146.17"/>
<polygon fill="black" stroke="black" points="1499.88,-146.21 1496.38,-136.21 1492.88,-146.21 1499.88,-146.21"/>
</g>
<!-- 3 -->
<g id="node3" class="node">
<title>3</title>
<path fill="none" stroke="red" stroke-width="2" d="M2980.75,-57.5C2980.75,-57.5 12,-57.5 12,-57.5 6,-57.5 0,-51.5 0,-45.5 0,-45.5 0,-12 0,-12 0,-6 6,0 12,0 12,0 2980.75,0 2980.75,0 2986.75,0 2992.75,-6 2992.75,-12 2992.75,-12 2992.75,-45.5 2992.75,-45.5 2992.75,-51.5 2986.75,-57.5 2980.75,-57.5"/>
<text xml:space="preserve" text-anchor="middle" x="1496.38" y="-40.2" font-family="Times,serif" font-size="14.00">3: root@fit01</text>
<text xml:space="preserve" text-anchor="middle" x="1496.38" y="-23.7" font-family="Times,serif" font-size="14.00">rm &#45;rf oai5g&#45;rru; git clone &#45;&#45;branch rg255c https://github.com/sopnode/oai5g&#45;rru.git; cp oai5g&#45;rru/demo&#45;oai.sh /root/; chmod a+x /root/demo&#45;oai.sh; cp oai5g&#45;rru/configure&#45;demo&#45;oai.sh /root/; cp oai5g&#45;rru/testing/logs.sh /root/; cp oai5g&#45;rru/testing/run&#45;iperf&#45;server.sh /root/; /root/configure&#45;demo&#45;oai.sh update oai5g sopnode&#45;w1 pc01 b210 full True False /root advance monolithic internet streaming r2labuser r2labuser&#45;pwd r2labuser@turletti.com ; rm &#45;rf oai&#45;cn5g&#45;fed; git clone &#45;&#45;branch rg255c https://gitlab.eurecom.fr/oai/cn5g/oai&#45;cn5g&#45;fed.git</text>
<text xml:space="preserve" text-anchor="middle" x="1496.38" y="-7.2" font-family="Times,serif" font-size="14.00">/root/demo&#45;oai.sh configure&#45;all</text>
</g>
<!-- 2&#45;&gt;3 -->
<g id="edge2" class="edge">
<title>2&#45;&gt;3</title>
<path fill="none" stroke="black" d="M1496.38,-93.27C1496.38,-86.21 1496.38,-77.98 1496.38,-69.82"/>
<polygon fill="black" stroke="black" points="1499.88,-69.99 1496.38,-59.99 1492.88,-69.99 1499.88,-69.99"/>
</g>
</g>
</svg>
